<svg version="1.1" xmlns="http://www.w3.org/2000/svg" xmlns:xlink="http://www.w3.org/1999/xlink" width="100px" height="100px" x="0x" y="0px" viewBox="0 0 1000 1000" enable-background="new 0 0 1000 1000" xml:space="preserve">
<metadata> Svg Vector Icons : http://www.onlinewebfonts.com/icon </metadata>
<style type="text/css">
.dot{
    opacity: 0;
    animation: loading 2s infinite;
}
@keyframes loading {
    from {
        opacity: 0;
    }
    50% {
        opacity: 1;
    }
    to {
        opacity: 0;
    }
}

#d1{
    animation-delay: 0.3s;
}
#d2{
    animation-delay: 0.2s;
}
#d3{
    animation-delay: 0.1s;
}
</style>
<g>
<g transform="translate(0.000000,511.000000) scale(0.100000,-0.100000)">
<path d="M3637.6,4202.3C1520.6,3940.5,9.9,2604.9,104.2,1076.9C140.7,468.7,394.8-66.3,875.9-553.2c192.5-194.4,513.8-454.2,652.4-527.3c53.9-27,53.9-30.8,44.3-154c-44.3-525.4-298.3-1272.1-617.8-1814.8c-57.7-100.1-111.6-217.5-119.3-259.8c-23.1-144.4,78.9-275.2,240.6-304.1c127-25,725.5,250.2,1133.5,519.6c427.2,281,900.7,710.1,1177.8,1068.1c69.3,88.5,138.6,177.1,154,198.2c26.9,34.6,42.3,34.6,327.2,11.5c292.5-21.2,300.2-23.1,375.3-84.7c354.1-282.9,946.9-542.7,1491.5-650.5c377.2-75,621.6-94.3,1050.8-82.8l384.9,9.6l98.2-127c127-165.5,425.3-467.7,615.8-621.6c394.5-317.5,991.1-633.2,1200.9-633.2c107.8,0,198.2,63.5,242.5,169.3c38.5,90.5,19.2,155.9-103.9,375.3c-192.5,340.6-332.9,710.2-409.9,1087.4c-59.7,300.2-63.5,290.6,111.6,413.8c344.5,240.6,627.4,563.9,792.9,906.4C9863.4-757.2,9900-589.8,9900-253c0,338.7-38.5,508.1-180.9,800.6c-215.5,446.5-608.1,831.4-1137.4,1122l-148.2,80.8l-61.6,175.1c-63.5,184.7-161.7,390.7-246.3,523.5c-577.4,894.9-1657,1520.4-2983,1726.3C4798.1,4229.2,3974.4,4242.7,3637.6,4202.3z M4927,3721.2C6314.6,3549.9,7423.1,2884,7846.5,1966c215.6-467.7,223.2-1014.2,17.3-1489.6c-130.9-302.1-386.8-637-662-867.9c-619.7-521.5-1454.9-846.8-2415.3-939.2c-307.9-30.8-964.2-15.4-1243.2,28.9c-171.3,26.9-204,26.9-215.5,3.8c-32.7-55.8-238.6-336.8-342.6-465.7c-142.4-177.1-456.1-488.8-640.9-640.9c-177.1-144.3-535-386.8-669.7-456.1l-98.1-50l32.7,73.1c180.9,417.6,277.1,702.4,359.9,1083.5c55.8,250.2,109.7,644.7,109.7,798.7v103.9l-179,105.8C1374.4-437.7,970.2-27.8,760.4,409c-246.3,513.9-240.6,1110.5,15.4,1618.5c196.3,390.7,579.3,791,1020,1066.2c517.7,321.4,1177.8,544.7,1861,627.4C3949.4,3757.7,4636.4,3755.8,4927,3721.2z M8701,1026.8c317.5-238.6,546.6-533.1,660.1-852.6c53.9-154,57.7-188.6,59.6-417.6c0-281-23.1-383-140.5-623.5c-163.6-329.1-540.8-689-925.7-885.3l-84.7-44.3l13.5-186.7c21.2-348.3,111.6-764,236.7-1095c36.6-100.1,63.5-184.8,59.7-188.6c-11.5-11.6-259.8,159.7-409.9,281c-200.2,163.6-502.3,486.9-652.4,698.6c-71.2,102-136.6,186.7-144.3,186.7c-5.8,0-105.8-13.5-223.2-28.9c-275.2-36.6-756.3-36.6-1043.1,0c-292.5,38.5-621.6,121.2-869.9,219.4c-275.2,109.7-279,111.6-165.5,127C6757.2-1552,8112.1-570.5,8422,647.7c27,102,53.9,257.9,59.7,346.4c7.7,94.3,19.2,157.8,32.7,157.8C8525.9,1151.9,8610.6,1096.1,8701,1026.8z"/>
<path id="d3" className ="dot" d="M2627.2,1636.9c-223.2-103.9-327.2-344.5-256-588.9c30.8-105.8,190.5-265.6,296.4-296.4c182.8-53.9,361.8-13.5,486.9,113.5c94.3,94.3,136.6,198.2,136.6,344.5c0,109.7-9.6,140.5-61.6,230.9c-90.4,150.1-209.8,219.4-388.7,227.1C2738.8,1671.5,2685,1663.8,2627.2,1636.9z"/>
<path id="d2" className ="dot" d="M4078.3,1619.6c-127-65.4-217.5-180.9-246.3-313.7c-59.7-282.9,140.5-552.3,423.4-573.5c340.6-25,592.7,288.7,494.6,615.8c-28.9,98.1-157.8,242.5-256,286.7C4374.7,1690.8,4207.3,1683.1,4078.3,1619.6z"/>
<path id="d1" className ="dot" d="M5571.7,1636.9c-173.2-80.8-292.5-288.7-273.3-473.4c34.6-342.6,388.8-538.9,689-381c331,173.2,348.3,617.8,32.7,825.6C5914.3,1679.2,5691.1,1692.7,5571.7,1636.9z"/>
</g>
</g>
</svg>