<?xml version="1.0" encoding="utf-8"?>
<!-- Generator: Adobe Illustrator 26.0.3, SVG Export Plug-In . SVG Version: 6.00 Build 0)  -->
<svg version="1.1" id="Layer_1" xmlns="http://www.w3.org/2000/svg" xmlns:xlink="http://www.w3.org/1999/xlink" x="0px" y="0px"
	 viewBox="0 0 191.15 69.01" style="enable-background:new 0 0 191.15 69.01;" xml:space="preserve">
<style type="text/css">
	.st0{fill:#000FF5;}
	.st1{fill:none;stroke:#000FF5;stroke-width:3.1587;stroke-linecap:round;stroke-linejoin:round;stroke-miterlimit:10;}
	.st2{fill:none;stroke:#000000;stroke-width:3.4049;stroke-miterlimit:10;}
	.st3{fill:#FFFFFF;}
	.st4{fill:#2F6218;}
	.st5{fill:none;stroke:#000000;stroke-width:2.7;stroke-linejoin:bevel;stroke-miterlimit:10;}
	.st6{fill:none;stroke:#000000;stroke-width:3.2;stroke-linejoin:round;stroke-miterlimit:10;}
	.st7{fill:none;stroke:#000000;stroke-width:3.2;stroke-miterlimit:10;}
	.st8{fill:none;stroke:#000FF5;stroke-width:10.5807;stroke-linecap:round;stroke-miterlimit:10;}
	.st9{fill:none;stroke:#000FF5;stroke-width:10.5807;stroke-linecap:round;stroke-linejoin:round;stroke-miterlimit:10;}
	.st10{fill:none;stroke:#000FF5;stroke-width:5;stroke-linecap:round;stroke-linejoin:round;stroke-miterlimit:10;}
	.st11{fill:none;stroke:#FFFFFF;stroke-width:1.5;stroke-linecap:round;stroke-linejoin:round;stroke-miterlimit:10;}
	.st12{fill:#FFFFFF;stroke:#FFFFFF;stroke-width:1.135;stroke-linecap:round;stroke-linejoin:round;stroke-miterlimit:10;}
	.st13{fill:none;stroke:#FFFFFF;stroke-width:1.7;stroke-miterlimit:10;}
	.st14{fill:none;stroke:#FFFFFF;stroke-width:2;stroke-linecap:round;stroke-linejoin:round;stroke-miterlimit:10;}
	.st15{fill:none;stroke:#FFFFFF;stroke-width:1.7025;stroke-linecap:round;stroke-linejoin:round;stroke-miterlimit:10;}
	.st16{fill:none;stroke:#FFFFFF;stroke-width:2.5;stroke-linecap:round;stroke-miterlimit:10;}
	.st17{fill:none;stroke:#FFFFFF;stroke-width:2.5;stroke-linecap:round;stroke-linejoin:round;stroke-miterlimit:10;}
	.st18{fill:none;stroke:#000FF5;stroke-width:1.5;stroke-miterlimit:10;}
	.st19{fill:none;stroke:#000FF5;stroke-width:1.5;stroke-linecap:square;stroke-linejoin:bevel;stroke-miterlimit:10;}
	.st20{fill:none;stroke:#000FF5;stroke-width:1.5;stroke-linecap:square;stroke-miterlimit:10;}
</style>
<g>
	<path d="M22.08,38.68l1.41,1.48h-6.7c-6.28,0-11.38,5.1-11.38,11.38c0,6.27,5.1,11.38,11.38,11.38h9.99v-3.2h-9.99
		c-4.51,0-8.18-3.67-8.18-8.18c0-4.51,3.67-8.18,8.18-8.18h6.8l-1.67,1.59l1.86,1.96l4.19-3.99l0.05-1.91l-3.99-4.19L22.08,38.68z"
		/>
	<polygon points="30.82,26.74 27.06,26.74 27.06,32.48 0,32.48 0,35.74 58.09,35.74 58.09,32.48 30.82,32.48 	"/>
	<polygon points="51.15,20.62 11.21,20.62 11.21,6.22 50.64,6.22 50.64,2.97 7.45,2.97 7.45,23.87 51.15,23.87 	"/>
	<rect x="117.07" y="0" width="3.69" height="64.17"/>
	<polygon points="103.4,22.36 87.99,22.36 87.99,25.61 103.4,25.61 103.4,60.63 107.09,60.63 107.09,1.81 103.4,1.81 	"/>
	<path d="M191.15,35.16v-3.26h-58.09v3.26h27.13v8.83h-20.62v3.18h42.1c-0.02,0.47-0.05,0.87-0.08,1.12
		c-0.37,2.46-2.41,11.04-12.95,17.85l1.85,2.86c11.41-7.38,13.92-16.59,14.47-20.2c0.2-1.32,0.16-4.5,0.16-4.86l-2.84,0.04h-18.25
		v-8.83H191.15z"/>
	<path d="M183.48,1.37h-3.83v8.32h-34.87V1.37h-3.83v23.59h42.54V1.37z M179.65,21.7h-34.87v-8.9h34.87V21.7z"/>
	<path d="M40.85,40.16h-9.99v3.2h9.99c4.51,0,8.18,3.67,8.18,8.18c0,4.51-3.67,8.18-8.18,8.18h-6.51L36,58.14l-1.86-1.96l-4.19,3.99
		l-0.05,1.91l3.99,4.19l1.96-1.86l-1.42-1.49h6.42c6.28,0,11.38-5.1,11.38-11.38C52.23,45.27,47.13,40.16,40.85,40.16z"/>
	<path d="M75.54,44.03c-0.52,0.01-1.22,0.01-1.86,0.01V7.27h-3.53v40.18h3.53v-0.01c0.14,0,0.29,0,0.44,0c0.53,0,1.07,0,1.49-0.01
		c4-0.08,14.22-1.34,22.71-11.32l-2.59-2.21C88.13,42.83,79.08,43.96,75.54,44.03z"/>
</g>
</svg>
