<svg id="Layer_1" data-name="Layer 1" xmlns="http://www.w3.org/2000/svg" width="200px" height="200px" viewBox="0 0 100 100" >
<style>
 @keyframes dashi {
   from{
    stroke-dashoffset: 385.65460205078125;
   }
   to{
       stroke-dashoffset: 0;
  
        
   }
}


#sophie{
    stroke: rgba(89,172,248);
    stroke-width: 1;
    stroke-dasharray: 385.65460205078125;
     stroke-dashoffset: 0;
    fill: white;
    animation: dashi 2s;
    
}



</style>
<path id ="sophie" d="M75.75,50.85l-4.28-.77a.85.85,0,1,0-.3,1.67l2.08.38L49.54,67.33l-24-12V48.62L50.41,32.67l23,11.49L49.54,59.44,32,50.64l2.05-.7a.85.85,0,1,0-.56-1.61l-4.11,1.42a.84.84,0,0,0-.53,1.08l1.41,4.11a.86.86,0,0,0,.81.58,1,1,0,0,0,.28-.05.84.84,0,0,0,.52-1.08l-.65-1.9,18,9a1,1,0,0,0,1,0l25.8-16.54a1,1,0,0,0-.09-1.73l-25-12.53a1,1,0,0,0-1,.05L24,47.23a1,1,0,0,0-.46.84V56a1,1,0,0,0,.55.89l25,12.53a1,1,0,0,0,.45.11,1.09,1.09,0,0,0,.54-.16L74.36,53.8l-.37,2a.84.84,0,0,0,.68,1l.16,0a.85.85,0,0,0,.83-.7l.78-4.28A.86.86,0,0,0,75.75,50.85Z"/></svg>